<?xml version="1.0" encoding="utf-8"?>
<!-- Generator: Adobe Illustrator 25.2.3, SVG Export Plug-In . SVG Version: 6.00 Build 0)  -->
<svg version="1.1" id="Layer_51" xmlns="http://www.w3.org/2000/svg" xmlns:xlink="http://www.w3.org/1999/xlink" x="0px" y="0px"
	 viewBox="0 0 64 64" style="enable-background:new 0 0 64 64;" xml:space="preserve">
<style type="text/css">
	.st0{fill:#ED1C24;}
	.st1{fill:#2488FF;}
	.st2{fill:#FF9811;}
	.st3{fill:#EE8700;}
	.st4{fill:#FFCD00;}
	.st5{fill:#EBBF00;}
	.st6{fill:#A97C50;}
	.st7{fill:#8B5E3C;}
	.st8{fill:#57A4FF;}
	.st9{fill:#D80027;}
	.st10{fill:#C49A6C;}
	.st11{fill:#AB2300;}
	.st12{fill:#DDB200;}
	.st13{fill:#CC7400;}
	.st14{fill:#754C29;}
	.st15{fill:#004FAC;}
	.st16{fill:#006DF0;}
	.st17{fill:#005ECE;}
	.st18{fill:#F1F2F2;}
	.st19{fill:#FFDE55;}
	.st20{fill:#FFEB99;}
	.st21{fill:#FFD422;}
	.st22{fill:#FFE477;}
	.st23{fill:#E6E7E8;}
	.st24{fill:#FF7956;}
	.st25{fill:#5EAC24;}
	.st26{fill:#4E901E;}
	.st27{fill:#939598;}
	.st28{fill:#58595B;}
	.st29{fill:#808285;}
	.st30{fill:#FFBCAB;}
	.st31{fill:#FF9478;}
	.st32{fill:#414042;}
	.st33{fill:#00479B;}
	.st34{fill:#003F8A;}
	.st35{fill:#FF6243;}
	.st36{fill:#9BC9FF;}
	.st37{fill:#FFAC96;}
	.st38{fill:none;}
	.st39{fill:#FF5023;}
	.st40{fill:#A7A9AC;}
	.st41{fill:#BCBEC0;}
	.st42{fill:#D1D3D4;}
	.st43{fill:#FFDAAA;}
	.st44{fill:#FFC477;}
	.st45{fill:#CCA400;}
	.st46{fill:#D1E7F8;}
	.st47{fill:#BD0022;}
	.st48{fill:#6D6E71;}
	.st49{fill:#565557;}
	.st50{fill:#FFA733;}
	.st51{fill:#A4E276;}
</style>
<g id="folder-files-school-elearning-education">
	<g>
		<g>
			<path class="st1" d="M57,11h-4v50c1.46,0,2.83-0.39,4-1.08V22V11z"/>
			<path class="st5" d="M57,22v37.92c2.39-1.37,4-3.96,4-6.92V22H57z"/>
		</g>
		<path class="st35" d="M53,61V11V7h-4v52.92C50.17,60.61,51.54,61,53,61"/>
		<polygon class="st24" points="17,14 7,14 17,3 		"/>
		<polygon class="st20" points="49,3 49,61 7,61 7,14 17,14 17,3 		"/>
		<path class="st22" d="M7,61h42V19C49,42.196,30.196,61,7,61z"/>
		<path class="st4" d="M49,59.921c-2.389-1.384-4-3.962-4-6.921V39c0-2.209-1.791-4-4-4H27c-2.2,0-4-1.8-4-4v-5c0-2.209-1.791-4-4-4
			H7c-2.209,0-4,1.791-4,4v31c0,2.209,1.791,4,4,4h46C51.541,61,50.178,60.603,49,59.921z"/>
		<path class="st5" d="M49,59.921c-2.389-1.384-4-3.962-4-6.921V39c0-2.209-1.791-4-4-4h-1v10c0,6.627-5.373,12-12,12H3
			c0,2.209,1.791,4,4,4h46C51.541,61,50.178,60.603,49,59.921z"/>
		<g>
			<path class="st24" d="M27,10h16c0.553,0,1-0.448,1-1s-0.447-1-1-1H27c-0.552,0-1,0.448-1,1S26.448,10,27,10z"/>
			<path class="st24" d="M21,14h22c0.553,0,1-0.448,1-1s-0.447-1-1-1H21c-0.552,0-1,0.448-1,1S20.448,14,21,14z"/>
			<path class="st24" d="M21,18h22c0.553,0,1-0.448,1-1s-0.447-1-1-1H21c-0.552,0-1,0.448-1,1S20.448,18,21,18z"/>
			<path class="st24" d="M43,20H25c-0.552,0-1,0.448-1,1s0.448,1,1,1h18c0.553,0,1-0.448,1-1S43.553,20,43,20z"/>
			<path class="st24" d="M43,24H27c-0.552,0-1,0.448-1,1s0.448,1,1,1h16c0.553,0,1-0.448,1-1S43.553,24,43,24z"/>
			<path class="st24" d="M43,28H27c-0.552,0-1,0.448-1,1s0.448,1,1,1h16c0.553,0,1-0.448,1-1S43.553,28,43,28z"/>
			<path class="st18" d="M14,56H9c-0.551,0-1-0.449-1-1v-4c0-0.552-0.448-1-1-1s-1,0.448-1,1v4c0,1.654,1.346,3,3,3h5
				c0.552,0,1-0.448,1-1S14.552,56,14,56z"/>
			<path class="st24" d="M21,10h2c0.552,0,1-0.448,1-1s-0.448-1-1-1h-2c-0.552,0-1,0.448-1,1S20.448,10,21,10z"/>
		</g>
	</g>
</g>
</svg>
