<svg xmlns="http://www.w3.org/2000/svg" version="1.1" xmlns:xlink="http://www.w3.org/1999/xlink" xmlns:svgjs="http://svgjs.dev/svgjs" width="1000" height="623" viewBox="0 0 1000 623"><g transform="matrix(1,0,0,1,-0.6060606060606233,0.2522267206477409)"><svg viewBox="0 0 396 247" data-background-color="#ffbe79" preserveAspectRatio="xMidYMid meet" height="623" width="1000" xmlns="http://www.w3.org/2000/svg" xmlns:xlink="http://www.w3.org/1999/xlink"><g id="tight-bounds" transform="matrix(1,0,0,1,0.2400000000000091,-0.09999999999999432)"><svg viewBox="0 0 395.52 247.2" height="247.2" width="395.52"><g><svg></svg></g><g><svg viewBox="0 0 395.52 247.2" height="247.2" width="395.52"><g transform="matrix(1,0,0,1,39.55199999999999,97.02877257563557)"><svg viewBox="0 0 316.416 53.14245484872885" height="53.14245484872885" width="316.416"><g><svg viewBox="0 0 316.416 53.14245484872885" height="53.14245484872885" width="316.416"><g><svg viewBox="0 0 316.416 53.14245484872885" height="53.14245484872885" width="316.416"><g><svg viewBox="0 0 316.416 53.14245484872885" height="53.14245484872885" width="316.416"><g><svg viewBox="0 0 316.416 53.14245484872885" height="53.14245484872885" width="316.416"><g transform="matrix(1,0,0,1,0,0)"><svg width="316.416" viewBox="1.9000000953674316 -35.70000076293945 219.1800079345703 36.5" height="53.14245484872885" data-palette-color="#374151"><g class="undefined-text-0" data-fill-palette-color="primary" id="text-0"><path d="M32.7 0.8L21.2-10.33 24.43-13.73 35.95-2.58 32.7 0.8ZM19.15 0.7L19.15 0.7Q14.15 0.7 10.25-1.55 6.35-3.8 4.13-7.89 1.9-11.98 1.9-17.5L1.9-17.5Q1.9-23.03 4.13-27.11 6.35-31.2 10.25-33.45 14.15-35.7 19.15-35.7L19.15-35.7Q24.15-35.7 28.05-33.45 31.95-31.2 34.18-27.11 36.4-23.03 36.4-17.5L36.4-17.5Q36.4-11.98 34.18-7.89 31.95-3.8 28.05-1.55 24.15 0.7 19.15 0.7ZM19.15-4.58L19.15-4.58Q22.95-4.58 25.5-6.28 28.05-7.98 29.34-10.91 30.63-13.85 30.63-17.5L30.63-17.5Q30.63-21.15 29.34-24.09 28.05-27.03 25.5-28.73 22.95-30.43 19.15-30.43L19.15-30.43Q15.35-30.43 12.8-28.73 10.25-27.03 8.96-24.09 7.68-21.15 7.68-17.5L7.68-17.5Q7.68-13.85 8.96-10.91 10.25-7.98 12.8-6.28 15.35-4.58 19.15-4.58ZM56.32 0.7L56.32 0.7Q51.4 0.7 48.19-1.21 44.97-3.13 43.4-6.63 41.82-10.13 41.82-14.93L41.82-14.93 41.82-35 47.27-35 47.27-16.35Q47.27-13.93 47.64-11.75 48-9.58 48.95-7.93 49.9-6.28 51.69-5.33 53.47-4.38 56.32-4.38L56.32-4.38Q59.2-4.38 60.99-5.33 62.77-6.28 63.72-7.94 64.67-9.6 65.02-11.76 65.37-13.93 65.37-16.35L65.37-16.35 65.37-35 70.82-35 70.82-14.93Q70.82-10.13 69.25-6.63 67.67-3.13 64.46-1.21 61.25 0.7 56.32 0.7ZM83.75 0L78.3 0 78.3-35 83.75-35 83.75 0ZM114.52 0L88.12 0 107.27-32 108.24-30.1 90.37-30.1 90.37-35 114.77-35 95.57-3 94.62-4.9 114.52-4.9 114.52 0ZM133.39-13.33L117.89-13.33 117.89-17.78 133.39-17.78 133.39-13.33ZM160.91 0L140.11 0 140.11-35 145.56-35 145.56-4.9 160.91-4.9 160.91 0ZM187.41 0L165.14 0 165.14-35 186.94-35 186.94-29.9 170.66-29.9 170.66-20.83 183.49-20.83 183.49-15.73 170.66-15.73 170.66-5.1 187.41-5.1 187.41 0ZM198.58 0L193.13 0 193.13-35 198.58-35 198.58-20.8 215.63-20.8 215.63-35 221.08-35 221.08 0 215.63 0 215.63-15.68 198.58-15.68 198.58 0Z" fill="#374151" data-fill-palette-color="primary"></path></g></svg></g></svg></g></svg></g></svg></g><g></g></svg></g></svg></g><g mask="url(#3d89789a-c77c-4c67-90a1-d9605cc35348)"><g transform="matrix(4.2904587720224185, 0, 0, 4.2904587720224185, 1, 3.2462025652024806)"><svg xmlns="http://www.w3.org/2000/svg" xmlns:xlink="http://www.w3.org/1999/xlink" version="1.1" x="0" y="0" viewBox="4.280035972595215 20 91.71979522705078 56.102996826171875" enable-background="new 0 0 100 100" xml:space="preserve" height="56.102996826171875" width="91.71979522705078" class="icon-none" data-fill-palette-color="accent" id="none"><g fill="#374151" data-fill-palette-color="accent"><path d="M68.633 55.761c-0.157 0-0.317 0.01-0.474 0.032-1.972 0.264-3.362 2.081-3.1 4.053 0.238 1.785 1.777 3.131 3.579 3.131 0.158 0 0.317-0.01 0.475-0.031 1.971-0.264 3.361-2.081 3.1-4.054C71.974 57.107 70.435 55.761 68.633 55.761z" fill="#374151" data-fill-palette-color="accent"></path><path d="M73.58 34.083c-1.609-1.063-3.733-1.625-6.146-1.625-0.709 0-1.438 0.049-2.166 0.146-2.408 0.321-4.744 1.487-6.41 3.197-1.689 1.736-2.51 3.855-2.248 5.813 0.192 1.445 1.28 2.379 2.771 2.379 0.16 0 0.323-0.012 0.486-0.033 1.992-0.266 2.422-1.638 2.836-2.964 0.473-1.512 0.919-2.939 3.493-3.283 0.264-0.035 0.521-0.053 0.765-0.053 1.853 0 3.003 0.978 3.24 2.754 0.232 1.738-1.142 3.124-2.597 4.591-1.633 1.647-3.484 3.513-3.131 6.16 0.091 0.682 0.392 1.318 0.846 1.791 0.521 0.543 1.203 0.83 1.972 0.83 0.141 0 0.287-0.009 0.432-0.029 2.084-0.278 2.368-1.487 2.642-2.658 0.104-0.442 0.212-0.9 0.42-1.312 0.289-0.576 1.012-1.252 1.851-2.034 2.002-1.871 4.743-4.433 4.236-8.228C76.555 37.148 75.446 35.317 73.58 34.083z" fill="#374151" data-fill-palette-color="accent"></path><path d="M95.961 65.606l-5.583-41.84C90.091 21.62 88.243 20 86.078 20c-0.191 0-0.386 0.013-0.577 0.039l-41.839 5.583c-2.372 0.317-4.044 2.504-3.728 4.877l0.319 2.394-27.441-3.965c-0.16-0.023-0.323-0.035-0.484-0.035-1.661 0-3.092 1.241-3.331 2.886L4.315 64.188c-0.128 0.891 0.098 1.777 0.636 2.498 0.539 0.72 1.325 1.188 2.216 1.316l32.408 4.682c0.161 0.022 0.324 0.033 0.484 0.033 1.661 0 3.092-1.239 3.33-2.885l0.932-6.453 1.195 8.957c0.287 2.148 2.135 3.767 4.299 3.767 0.192 0 0.387-0.012 0.578-0.037l41.84-5.585c1.147-0.152 2.169-0.744 2.873-1.665C95.812 67.896 96.114 66.755 95.961 65.606zM40.623 69.434c-0.044 0.307-0.334 0.529-0.647 0.483L7.567 65.235c-0.205-0.029-0.323-0.152-0.376-0.223-0.053-0.071-0.137-0.221-0.108-0.425l4.682-32.409c0.041-0.279 0.283-0.49 0.563-0.49 0.028 0 0.057 0.002 0.084 0.006l28.226 4.077 2.328 17.444L40.623 69.434zM92.244 66.627c-0.069 0.091-0.225 0.248-0.488 0.283l-41.839 5.584c-0.405 0.056-0.774-0.235-0.828-0.633l-5.583-41.839c-0.054-0.403 0.23-0.774 0.633-0.828l41.838-5.584c0.035-0.004 0.067-0.006 0.102-0.006 0.366 0 0.68 0.275 0.728 0.64l5.585 41.84C92.425 66.347 92.312 66.537 92.244 66.627z" fill="#374151" data-fill-palette-color="accent"></path><path d="M33.159 41.087c-1.284-1.176-3.186-1.997-5.354-2.31-0.396-0.058-0.803-0.087-1.208-0.087-1.703 0-3.377 0.5-4.717 1.408-1.377 0.934-2.246 2.203-2.443 3.572-0.094 0.651 0.061 1.231 0.45 1.679 0.35 0.402 0.877 0.673 1.485 0.761 0.153 0.022 0.3 0.034 0.44 0.034 1.227 0 1.775-0.837 2.305-1.646 0.591-0.906 1.151-1.762 2.64-1.762 0.206 0 0.429 0.017 0.66 0.05 1.764 0.254 2.645 1.298 2.418 2.864-0.193 1.345-1.513 2.09-2.908 2.877-1.567 0.884-3.344 1.886-3.64 3.937-0.083 0.572 0.033 1.168 0.32 1.633 0.235 0.382 0.695 0.863 1.557 0.988 0.18 0.025 0.351 0.039 0.509 0.039h0.001c1.212 0 1.625-0.745 2.023-1.465 0.171-0.309 0.347-0.628 0.59-0.891 0.337-0.369 1.021-0.721 1.812-1.128 1.89-0.972 4.479-2.306 4.903-5.244C35.303 44.305 34.667 42.469 33.159 41.087z" fill="#374151" data-fill-palette-color="accent"></path><path d="M25.057 56.696c-0.132-0.019-0.265-0.03-0.397-0.03-1.383 0-2.576 1.033-2.774 2.4-0.219 1.527 0.844 2.949 2.371 3.17 0.132 0.02 0.266 0.028 0.397 0.028 1.384 0 2.577-1.031 2.774-2.398C27.647 58.339 26.584 56.918 25.057 56.696z" fill="#374151" data-fill-palette-color="accent"></path></g></svg></g></g></svg></g><defs><mask id="baae7b67-1763-4597-9cae-c09f55dccc11"><rect width="640" height="400" fill="white"></rect><rect width="348.05760000000004" height="82.42335314225164" fill="black" x="145.97119999999998" y="158.78832342887418" id="transform-me" transform="matrix(1,0,0,1,-122.24000000000001,-76.4)"></rect></mask><mask id="481f8162-911f-413b-8137-ab74812568b9"><rect width="640" height="400" fill="white"></rect><rect width="348.05760000000004" height="98.15454174113832" fill="black" x="145.97119999999998" y="150.92272912943085" id="transform-me" transform="matrix(1,0,0,1,-122.24000000000001,-76.4)"></rect></mask><mask id="d025e801-d0f5-432f-863f-fe53ba1a9119"><rect width="640" height="400" fill="white"></rect><rect width="348.05760000000004" height="82.42335314225164" fill="black" x="145.97119999999998" y="158.78832342887418" id="transform-me" transform="matrix(1,0,0,1,-122.24000000000001,-76.4)"></rect></mask><mask id="431138fc-394d-4fc1-bccc-22cb6730b412"><rect width="640" height="400" fill="white"></rect><rect width="348.05760000000004" height="82.42335314225164" fill="black" x="145.97119999999998" y="158.78832342887418" id="transform-me" transform="matrix(1,0,0,1,-122.24000000000001,-76.4)"></rect></mask><mask id="3d89789a-c77c-4c67-90a1-d9605cc35348"><rect width="640" height="400" fill="white"></rect><rect width="348.05760000000004" height="78.23377119046589" fill="black" x="145.97119999999998" y="160.88311440476707" id="transform-me" transform="matrix(1,0,0,1,-122.24000000000001,-76.4)"></rect></mask></defs></svg><rect width="395.52" height="247.2" fill="none" stroke="none" visibility="hidden"></rect></g></svg></g></svg>